<?xml version="1.0" encoding="UTF-8"?>
<svg width="800" height="600" viewBox="0 0 800 600" xmlns="http://www.w3.org/2000/svg">
  <defs>
    <linearGradient id="buildingGradient" x1="0%" y1="0%" x2="100%" y2="100%">
      <stop offset="0%" style="stop-color:#0088cc;stop-opacity:0.1" />
      <stop offset="100%" style="stop-color:#00cc88;stop-opacity:0.1" />
    </linearGradient>
  </defs>
  <!-- Background -->
  <rect width="800" height="600" fill="url(#buildingGradient)" />
  
  <!-- Industrial buildings -->
  <g fill="none" stroke="currentColor" stroke-width="2">
    <!-- Factory building -->
    <rect x="100" y="200" width="200" height="300" />
    <path d="M100,200 L200,100 L300,200" />
    <!-- Windows -->
    <rect x="130" y="250" width="40" height="60" />
    <rect x="230" y="250" width="40" height="60" />
    <rect x="130" y="350" width="40" height="60" />
    <rect x="230" y="350" width="40" height="60" />
    
    <!-- Industrial pipes -->
    <path d="M350,300 C400,300 400,200 450,200" />
    <path d="M350,350 C400,350 400,250 450,250" />
    
    <!-- Storage tanks -->
    <circle cx="500" cy="400" r="50" />
    <circle cx="600" cy="400" r="50" />
    
    <!-- Smoke stacks -->
    <rect x="150" y="50" width="20" height="100" />
    <rect x="190" y="50" width="20" height="100" />
  </g>
</svg> 