<?xml version="1.0" encoding="UTF-8"?>
<svg width="800" height="600" viewBox="0 0 800 600" xmlns="http://www.w3.org/2000/svg">
  <defs>
    <linearGradient id="techGradient" x1="0%" y1="0%" x2="100%" y2="100%">
      <stop offset="0%" style="stop-color:#0088cc;stop-opacity:0.1" />
      <stop offset="100%" style="stop-color:#00cc88;stop-opacity:0.1" />
    </linearGradient>
  </defs>
  <!-- Background -->
  <rect width="800" height="600" fill="url(#techGradient)" />
  
  <!-- Digital elements -->
  <g fill="none" stroke="currentColor" stroke-width="2">
    <!-- Circuit board patterns -->
    <path d="M100,100 L300,100 L300,200 L500,200 L500,300" />
    <path d="M200,150 L400,150 L400,250 L600,250" />
    <path d="M150,300 L350,300 L350,400" />
    
    <!-- Connection nodes -->
    <circle cx="300" cy="100" r="5" />
    <circle cx="500" cy="200" r="5" />
    <circle cx="400" cy="150" r="5" />
    <circle cx="350" cy="300" r="5" />
    
    <!-- Digital squares -->
    <rect x="250" y="180" width="40" height="40" />
    <rect x="450" y="230" width="40" height="40" />
    <rect x="350" y="280" width="40" height="40" />
    
    <!-- Connected devices -->
    <path d="M600,100 C650,100 650,200 700,200" />
    <path d="M600,300 C650,300 650,400 700,400" />
    
    <!-- Cloud symbol -->
    <path d="M550,150 C530,120 570,100 600,120 C610,100 640,100 650,120 C680,110 690,140 670,150 C690,160 680,190 650,180 C640,200 610,200 600,180 C570,200 530,180 550,150" />
  </g>
</svg> 